<svg width="360" height="614" viewBox="0 0 360 614" fill="none" xmlns="http://www.w3.org/2000/svg">
<path d="M20.5 78C8.96712 77.987 -2.08955 73.4524 -10.2445 65.3911C-18.3995 57.3299 -22.9868 46.4003 -23 35H-6.42857C-6.42857 42.0598 -3.59145 48.8305 1.45864 53.8225C6.50872 58.8145 13.3581 61.619 20.5 61.619C27.6419 61.619 34.4913 58.8145 39.5414 53.8225C44.5915 48.8305 47.4286 42.0598 47.4286 35H64C63.9868 46.4003 59.3995 57.3299 51.2445 65.3911C43.0896 73.4524 32.0329 77.987 20.5 78V78Z" fill="#FF4D26"/>
<path d="M377.024 16V15.9994C377.012 6.18393 373.107 -3.22601 366.167 -10.1666C359.226 -17.1072 349.816 -21.0117 340.001 -21.0238L340 -20.5238V-21.0238C332.677 -21.0238 325.519 -18.8523 319.431 -14.7841C313.342 -10.7159 308.597 -4.93366 305.794 1.83155C302.992 8.59678 302.259 16.041 303.688 23.2229C305.116 30.4048 308.642 37.0019 313.82 42.1798C318.998 47.3576 325.595 50.8838 332.777 52.3124C339.959 53.7409 347.403 53.0078 354.168 50.2056C360.934 47.4033 366.716 42.658 370.784 36.5695C374.852 30.4809 377.024 23.3226 377.024 16ZM339.999 74.5C328.429 74.4999 317.119 71.0689 307.499 64.6409C297.879 58.2129 290.381 49.0764 285.953 38.3869C281.525 27.6974 280.367 15.9352 282.624 4.58728C284.881 -6.7606 290.453 -17.1843 298.634 -25.3657C306.816 -33.547 317.239 -39.1187 328.587 -41.3759C339.935 -43.6331 351.697 -42.4747 362.387 -38.0469C373.076 -33.6192 382.213 -26.1212 388.641 -16.5009C395.069 -6.88078 398.5 4.42942 398.5 15.9994C398.482 31.5093 392.313 46.3788 381.346 57.3459C370.379 68.3131 355.509 74.4823 339.999 74.5Z" stroke="white"/>
<path d="M390 515L390 561.857C369.649 561.882 350.139 569.912 335.749 584.186C321.359 598.461 313.263 617.813 313.238 638L266 638C266.038 605.39 279.114 574.126 302.36 551.067C325.607 528.008 357.125 515.037 390 515V515Z" fill="#91C5F2"/>
</svg>
