<svg width="1170" height="564" viewBox="0 0 1170 564" fill="none" xmlns="http://www.w3.org/2000/svg">
<rect x="1170" y="175" width="351" height="70" transform="rotate(90 1170 175)" fill="#FF4D26"/>
<path d="M390 263L390 329.667C361.115 329.702 333.423 341.127 312.998 361.436C292.574 381.745 281.083 409.279 281.048 438L214 438C214.053 391.603 232.613 347.122 265.608 314.315C298.603 281.508 343.338 263.053 390 263Z" fill="#91C5F2"/>
<path d="M581.5 564C534.441 563.947 489.324 545.598 456.048 512.978C422.772 480.358 404.054 436.132 404 390H471.619C471.619 418.568 483.196 445.965 503.802 466.165C524.409 486.366 552.358 497.714 581.5 497.714C610.642 497.714 638.591 486.366 659.198 466.165C679.804 445.965 691.381 418.568 691.381 390H759C758.946 436.132 740.228 480.358 706.952 512.978C673.676 545.598 628.559 563.947 581.5 564Z" fill="#FF4D26"/>
<path d="M873.501 66.3572H873.5C851.914 66.3572 830.812 72.7585 812.863 84.7512C794.915 96.744 780.926 113.789 772.665 133.733C764.404 153.676 762.243 175.621 766.454 196.792C770.666 217.964 781.061 237.412 796.324 252.676C811.588 267.94 831.036 278.334 852.208 282.546C873.379 286.757 895.324 284.596 915.267 276.335C935.211 268.074 952.256 254.085 964.249 236.137C976.242 218.188 982.643 197.086 982.643 175.5V175.499C982.607 146.564 971.097 118.824 950.636 98.3636C930.176 77.9031 902.436 66.3927 873.501 66.3572ZM873.499 350.5C838.888 350.5 805.054 340.236 776.275 321.007C747.496 301.778 725.066 274.446 711.821 242.469C698.576 210.492 695.11 175.306 701.863 141.359C708.615 107.413 725.282 76.2307 749.757 51.7565C774.231 27.2823 805.413 10.6151 839.359 3.86266C873.306 -2.88976 908.492 0.575818 940.469 13.8212C972.446 27.0665 999.778 49.4965 1019.01 78.2751C1038.24 107.054 1048.5 140.888 1048.5 175.499C1048.45 221.896 1029.99 266.377 997.185 299.185C964.377 331.992 919.896 350.447 873.499 350.5Z" stroke="white"/>
<rect x="147" y="438" width="147" height="70" transform="rotate(-180 147 438)" fill="#A2DADE"/>
</svg>
