<svg width="1040" height="278" viewBox="0 0 1040 278" fill="none" xmlns="http://www.w3.org/2000/svg">
<path d="M79 201.839C99.9448 201.862 120.025 209.87 134.835 224.107C149.645 238.343 157.976 257.645 158 277.778L127.905 277.778C127.905 265.311 122.752 253.353 113.581 244.537C104.409 235.721 91.9703 230.768 79 230.768C66.0297 230.768 53.5906 235.721 44.4191 244.537C35.2477 253.353 30.0952 265.311 30.0952 277.778L0 277.778C0.0238971 257.645 8.35491 238.343 23.1651 224.107C37.9753 209.87 58.0552 201.862 79 201.839Z" fill="#0072D3"/>
<path fill-rule="evenodd" clip-rule="evenodd" d="M69.3325 193.492C78.7061 199.586 89.7265 202.838 101 202.838C116.112 202.822 130.6 196.973 141.286 186.577C151.972 176.181 157.983 162.085 158 147.383C158 136.414 154.657 125.693 148.394 116.573C142.13 107.453 133.228 100.345 122.813 96.1481C112.398 91.9508 100.937 90.8526 89.8799 92.9924C78.823 95.1321 68.6666 100.414 60.695 108.169C52.7234 115.925 47.2946 125.806 45.0953 136.564C42.8959 147.321 44.0247 158.471 48.3389 168.605C52.6531 178.738 59.9589 187.399 69.3325 193.492Z" fill="black"/>
<path d="M687.435 185.852L687.435 220.68C672.1 220.698 657.399 226.667 646.556 237.276C635.713 247.886 629.613 262.27 629.594 277.274L594 277.274C594.028 253.036 603.881 229.799 621.398 212.66C638.914 195.521 662.663 185.88 687.435 185.852Z" fill="#A2DADE"/>
<path d="M854.439 278L819.125 278C819.106 262.877 813.054 248.378 802.297 237.685C791.539 226.991 776.954 220.975 761.74 220.956L761.74 185.852C786.317 185.88 809.879 195.598 827.257 212.873C844.636 230.148 854.411 253.57 854.439 278Z" fill="#A2DADE"/>
<rect x="761.74" y="220.68" width="74.3068" height="34.8275" transform="rotate(-180 761.74 220.68)" fill="#A2DADE"/>
<path fill-rule="evenodd" clip-rule="evenodd" d="M704.98 163.701C710.969 167.647 718.01 169.754 725.213 169.754C734.868 169.743 744.124 165.955 750.952 159.222C757.779 152.489 761.619 143.36 761.63 133.838C761.63 126.734 759.494 119.79 755.493 113.884C751.491 107.978 745.803 103.374 739.149 100.656C732.495 97.9376 725.172 97.2263 718.108 98.6121C711.044 99.9979 704.555 103.419 699.461 108.442C694.368 113.464 690.9 119.864 689.495 126.831C688.09 133.798 688.811 141.019 691.567 147.582C694.323 154.145 698.991 159.754 704.98 163.701Z" fill="black"/>
<path fill-rule="evenodd" clip-rule="evenodd" d="M282.5 72.9419C303.312 72.9646 323.265 80.8675 337.982 94.9166C352.698 108.966 360.976 128.014 361 147.882V277.779H331V147.882H331.095C331.095 135.578 325.975 123.778 316.862 115.078C307.749 106.378 295.388 101.491 282.5 101.491C269.612 101.491 257.251 106.378 248.138 115.078C239.519 123.306 234.472 134.307 233.95 145.884H234L234 277.779H204L204 145.884H204.03C204.587 126.74 212.796 108.494 227.018 94.9166C241.735 80.8674 261.688 72.9646 282.5 72.9419Z" fill="#FF4D26"/>
<path fill-rule="evenodd" clip-rule="evenodd" d="M262.888 66.7954C269.137 70.8029 276.484 72.9419 284 72.9419C294.075 72.9309 303.733 69.0848 310.857 62.2475C317.981 55.4103 321.989 46.1403 322 36.4709C322 29.2577 319.771 22.2064 315.596 16.2087C311.42 10.2111 305.486 5.5366 298.542 2.7762C291.598 0.0158008 283.958 -0.706443 276.587 0.700796C269.215 2.10804 262.444 5.58158 257.13 10.6821C251.816 15.7827 248.196 22.2812 246.73 29.3559C245.264 36.4305 246.016 43.7635 248.893 50.4277C251.769 57.0919 256.639 62.7879 262.888 66.7954Z" fill="#A2DADE"/>
<path fill-rule="evenodd" clip-rule="evenodd" d="M437.808 190.107C445.533 195.249 454.731 197.556 463.9 196.651C473.069 195.745 481.668 191.682 488.293 185.123C494.82 178.68 498.9 170.071 499.808 160.831C500.715 151.591 498.39 142.321 493.248 134.674C488.807 128.063 482.563 122.941 475.296 119.948C467.965 116.919 459.934 116.132 452.175 117.68C444.455 119.2 437.337 123.001 431.697 128.615C426.126 134.155 422.311 141.285 420.748 149.078C419.226 156.83 420.038 164.872 423.076 172.14C426.133 179.498 431.262 185.754 437.808 190.107Z" fill="#0072D3"/>
<path d="M430.883 275.322L430.882 275.334V275.346V277.279H401.5V275.355C402.138 256.018 410.43 237.702 424.591 224.352C439.671 210.218 459.658 202.339 480.436 202.339C501.214 202.339 521.201 210.218 536.281 224.352C543.558 231.183 549.365 239.396 553.354 248.498C557.338 257.586 559.428 267.375 559.5 277.279L530.225 277.268C530.2 271.029 528.899 264.859 526.402 259.13C523.899 253.387 520.246 248.205 515.662 243.898L515.661 243.897C506.164 235.021 493.592 230.076 480.527 230.076C467.461 230.076 454.89 235.021 445.392 243.897L445.39 243.899C436.654 252.14 431.458 263.392 430.883 275.322Z" stroke="black"/>
<path fill-rule="evenodd" clip-rule="evenodd" d="M915.554 188.704C928.71 197.268 944.178 201.839 960 201.839C981.21 201.816 1001.54 193.597 1016.54 178.986C1031.54 164.374 1039.98 144.564 1040 123.901C1040 108.487 1035.31 93.4181 1026.52 80.6012C1017.73 67.7844 1005.23 57.795 990.615 51.8961C975.997 45.9971 959.911 44.4537 944.393 47.461C928.874 50.4682 914.62 57.8911 903.432 68.791C892.243 79.6908 884.624 93.578 881.537 108.696C878.45 123.815 880.035 139.485 886.09 153.727C892.145 167.968 902.398 180.14 915.554 188.704Z" fill="#FF4D26"/>
<path d="M1040 277.779V277.324C1039.93 267.335 1037.83 257.462 1033.81 248.297C1029.8 239.132 1023.95 230.864 1016.62 223.987C1001.45 209.766 981.341 201.839 960.436 201.839C939.531 201.839 919.422 209.766 904.249 223.987C889.99 237.43 881.64 255.874 881 275.346V277.779H911.382V275.346C911.951 263.546 917.09 252.416 925.733 244.262C935.138 235.473 947.587 230.576 960.527 230.576C973.466 230.576 985.915 235.473 995.32 244.262C999.854 248.523 1003.47 253.649 1005.94 259.329C1008.42 265.01 1009.71 271.128 1009.72 277.313V277.768L1040 277.779Z" fill="black"/>
</svg>
