<svg width="1040" height="278" fill="none" xmlns="http://www.w3.org/2000/svg"><path d="M79 201.839c20.945.023 41.025 8.031 55.835 22.268 14.81 14.236 23.141 33.538 23.165 53.672h-30.095c0-12.468-5.153-24.426-14.324-33.242-9.172-8.816-21.61-13.769-34.581-13.769-12.97 0-25.41 4.953-34.58 13.769-9.172 8.816-14.325 20.774-14.325 33.241H0c.024-20.133 8.355-39.435 23.165-53.671 14.81-14.237 34.89-22.245 55.835-22.268Z" fill="#0072D3"/><path fill-rule="evenodd" clip-rule="evenodd" d="M69.332 193.492c9.374 6.094 20.395 9.346 31.668 9.346 15.112-.016 29.6-5.865 40.286-16.261 10.686-10.396 16.697-24.492 16.714-39.194 0-10.969-3.343-21.69-9.606-30.81-6.264-9.12-15.166-16.228-25.581-20.425a58.475 58.475 0 0 0-32.933-3.156c-11.057 2.14-21.213 7.422-29.185 15.177-7.972 7.756-13.4 17.637-15.6 28.395a54.062 54.062 0 0 0 3.244 32.041c4.314 10.133 11.62 18.794 20.993 24.887Z" fill="#000"/><path d="M687.435 185.852v34.828c-15.335.018-30.036 5.987-40.879 16.596-10.843 10.61-16.943 24.994-16.962 39.998H594c.028-24.238 9.881-47.475 27.398-64.614 17.516-17.139 41.265-26.78 66.037-26.808ZM854.439 278h-35.314c-.019-15.123-6.071-29.622-16.828-40.315-10.758-10.694-25.343-16.71-40.557-16.729v-35.103c24.577.027 48.139 9.745 65.517 27.02 17.379 17.275 27.154 40.697 27.182 65.127Z" fill="#A2DADE"/><path fill="#A2DADE" d="M761.74 220.68h-74.307v-34.828h74.307z"/><path fill-rule="evenodd" clip-rule="evenodd" d="M704.98 163.701a36.786 36.786 0 0 0 20.233 6.053c9.655-.011 18.911-3.799 25.739-10.532 6.827-6.733 10.667-15.862 10.678-25.384a35.568 35.568 0 0 0-6.137-19.954 36.318 36.318 0 0 0-16.344-13.228 36.89 36.89 0 0 0-21.041-2.044 36.584 36.584 0 0 0-18.647 9.83 35.759 35.759 0 0 0-9.966 18.389 35.46 35.46 0 0 0 2.072 20.751 36.028 36.028 0 0 0 13.413 16.119Z" fill="#000"/><path fill-rule="evenodd" clip-rule="evenodd" d="M282.5 72.942c20.812.023 40.765 7.926 55.482 21.975 14.716 14.049 22.994 33.097 23.018 52.965v129.897h-30V147.882h.095c0-12.304-5.12-24.104-14.233-32.804-9.113-8.7-21.474-13.587-34.362-13.587-12.888 0-25.249 4.887-34.362 13.587-8.619 8.228-13.666 19.229-14.188 30.806h.05v131.895h-30V145.884h.03c.557-19.144 8.766-37.39 22.988-50.967 14.717-14.05 34.67-21.952 55.482-21.975Z" fill="#FF4D26"/><path fill-rule="evenodd" clip-rule="evenodd" d="M262.888 66.795c6.249 4.008 13.596 6.147 21.112 6.147 10.075-.011 19.733-3.857 26.857-10.694C317.981 55.41 321.989 46.14 322 36.47c0-7.213-2.229-14.265-6.404-20.262-4.176-5.998-10.11-10.672-17.054-13.433A39.481 39.481 0 0 0 276.587.701c-7.372 1.407-14.143 4.88-19.457 9.981-5.314 5.1-8.934 11.6-10.4 18.674a35.105 35.105 0 0 0 2.163 21.072c2.876 6.664 7.746 12.36 13.995 16.367Z" fill="#A2DADE"/><path fill-rule="evenodd" clip-rule="evenodd" d="M437.808 190.107c7.725 5.142 16.923 7.449 26.092 6.544 9.169-.906 17.768-4.969 24.393-11.528 6.527-6.443 10.607-15.052 11.515-24.292.907-9.24-1.418-18.51-6.56-26.157-4.441-6.611-10.685-11.733-17.952-14.726a39.999 39.999 0 0 0-23.121-2.268c-7.72 1.52-14.838 5.321-20.478 10.935-5.571 5.54-9.386 12.67-10.949 20.463a39.915 39.915 0 0 0 2.328 23.062c3.057 7.358 8.186 13.614 14.732 17.967Z" fill="#0072D3"/><path d="m430.883 275.322-.001.012v1.945H401.5v-1.925c.638-19.336 8.93-37.652 23.091-51.002 15.08-14.134 35.067-22.013 55.845-22.013s40.765 7.879 55.845 22.013a73.692 73.692 0 0 1 17.073 24.146 72.995 72.995 0 0 1 6.146 28.781l-29.275-.011a45.85 45.85 0 0 0-3.823-18.138 46.272 46.272 0 0 0-10.74-15.232l-.001-.001c-9.497-8.876-22.069-13.821-35.134-13.821-13.066 0-25.637 4.945-35.135 13.821l-.002.002c-8.736 8.241-13.932 19.493-14.507 31.423Z" stroke="#000"/><path fill-rule="evenodd" clip-rule="evenodd" d="M915.554 188.704c13.156 8.564 28.624 13.135 44.446 13.135 21.21-.023 41.54-8.242 56.54-22.853 15-14.612 23.44-34.422 23.46-55.085 0-15.414-4.69-30.483-13.48-43.3-8.79-12.817-21.29-22.806-35.905-28.705-14.618-5.899-30.704-7.442-46.222-4.435-15.519 3.007-29.773 10.43-40.961 21.33-11.189 10.9-18.808 24.787-21.895 39.905-3.087 15.119-1.502 30.789 4.553 45.031 6.055 14.241 16.308 26.413 29.464 34.977Z" fill="#FF4D26"/><path d="M1040 277.779v-.455a73.527 73.527 0 0 0-6.19-29.027 74.047 74.047 0 0 0-17.19-24.31c-15.17-14.221-35.279-22.148-56.184-22.148-20.905 0-41.014 7.927-56.187 22.148C889.99 237.43 881.64 255.874 881 275.346v2.433h30.382v-2.433c.569-11.8 5.708-22.93 14.351-31.084 9.405-8.789 21.854-13.686 34.794-13.686 12.939 0 25.388 4.897 34.793 13.686a45.694 45.694 0 0 1 10.62 15.067 45.129 45.129 0 0 1 3.78 17.984v.455l30.28.011Z" fill="#000"/></svg>