<svg width="1170" height="564" fill="none" xmlns="http://www.w3.org/2000/svg"><path fill="#FF4D26" d="M1170 175v351h-70V175z"/><path d="M390 263v66.667c-28.885.035-56.577 11.46-77.002 31.769-20.424 20.309-31.915 47.843-31.95 76.564H214c.053-46.397 18.613-90.878 51.608-123.685S343.338 263.053 390 263Z" fill="#91C5F2"/><path d="M581.5 564c-47.059-.053-92.176-18.402-125.452-51.022C422.772 480.358 404.054 436.132 404 390h67.619c0 28.568 11.577 55.965 32.183 76.165 20.607 20.201 48.556 31.549 77.698 31.549 29.142 0 57.091-11.348 77.698-31.549 20.606-20.2 32.183-47.597 32.183-76.165H759c-.054 46.132-18.772 90.358-52.048 122.978-33.276 32.62-78.393 50.969-125.452 51.022Z" fill="#FF4D26"/><path d="M873.501 66.357h-.001a109.147 109.147 0 0 0-100.835 67.376 109.14 109.14 0 0 0 79.543 148.813A109.14 109.14 0 0 0 982.643 175.5v-.001A109.276 109.276 0 0 0 873.501 66.357Zm-.002 284.143a175.002 175.002 0 0 1-171.636-209.141 175 175 0 0 1 346.637 34.14A175.2 175.2 0 0 1 873.499 350.5Z" stroke="#fff"/><path fill="#A2DADE" d="M147 438H0v-70h147z"/></svg>