<svg width="360" height="614" fill="none" xmlns="http://www.w3.org/2000/svg"><path d="M20.5 78c-11.533-.013-22.59-4.548-30.745-12.609C-18.4 57.33-22.987 46.401-23 35h16.571c0 7.06 2.838 13.83 7.888 18.822 5.05 4.992 11.9 7.797 19.041 7.797 7.142 0 13.991-2.804 19.041-7.797C44.591 48.83 47.43 42.06 47.43 35H64c-.013 11.4-4.6 22.33-12.755 30.391C43.09 73.452 32.032 77.987 20.5 78Z" fill="#FF4D26"/><path d="M377.024 16a37.07 37.07 0 0 0-37.023-37.024l-.001.5v-.5a37.02 37.02 0 0 0-34.206 22.856 37.022 37.022 0 0 0 8.026 40.348A37.025 37.025 0 0 0 377.024 16Zm-37.025 58.5a58.498 58.498 0 0 1-41.365-99.866 58.502 58.502 0 0 1 90.007 8.865A58.499 58.499 0 0 1 398.5 16 58.569 58.569 0 0 1 339.999 74.5Z" stroke="#fff"/><path d="M390 515v46.857c-20.351.025-39.861 8.055-54.251 22.329-14.39 14.275-22.486 33.627-22.511 53.814H266c.038-32.61 13.114-63.874 36.36-86.933 23.247-23.059 54.765-36.03 87.64-36.067Z" fill="#91C5F2"/></svg>