<svg width="202" height="203" fill="none" xmlns="http://www.w3.org/2000/svg"><path d="M164.008 101.188v-.001a63.279 63.279 0 0 0-18.48-44.623 63.031 63.031 0 0 0-44.537-18.516l-.001.497v-.497a62.932 62.932 0 0 0-35.011 10.641 63.112 63.112 0 0 0-23.21 28.336 63.253 63.253 0 0 0-3.586 36.48 63.177 63.177 0 0 0 17.247 32.329 62.98 62.98 0 0 0 32.266 17.28 62.898 62.898 0 0 0 36.41-3.593 63.044 63.044 0 0 0 28.282-23.255 63.23 63.23 0 0 0 10.62-35.078ZM100.99 201.875a100.353 100.353 0 0 1-55.829-16.968A100.646 100.646 0 0 1 8.15 139.719 100.869 100.869 0 0 1 2.43 81.545 100.75 100.75 0 0 1 29.933 29.99 100.43 100.43 0 0 1 81.386 2.435a100.307 100.307 0 0 1 58.06 5.73 100.531 100.531 0 0 1 45.098 37.083 100.828 100.828 0 0 1 16.936 55.939 100.903 100.903 0 0 1-29.467 71.164 100.502 100.502 0 0 1-71.023 29.524Z" stroke="#000"/></svg>