<svg width="202" height="203" viewBox="0 0 202 203" fill="none" xmlns="http://www.w3.org/2000/svg">
<path d="M164.008 101.188V101.187C163.987 84.4481 157.342 68.4005 145.528 56.564C133.715 44.7274 117.698 38.0683 100.991 38.0477L100.99 38.5446V38.0477C88.5262 38.0477 76.342 41.7511 65.9788 48.6891C55.6155 55.6271 47.5387 65.4881 42.7692 77.0253C37.9996 88.5625 36.7519 101.258 39.1833 113.505C41.6148 125.753 47.6165 137.004 56.4296 145.834C65.2427 154.664 76.4716 160.678 88.696 163.114C100.92 165.551 113.591 164.3 125.106 159.521C136.621 154.742 146.463 146.65 153.388 136.266C160.312 125.883 164.008 113.675 164.008 101.188ZM100.99 201.875C81.1149 201.875 61.6864 195.97 45.1611 184.907C28.6356 173.843 15.7555 158.118 8.14953 139.719C0.543545 121.321 -1.44654 101.076 2.43097 81.5445C6.30848 62.0128 15.8795 44.0719 29.9333 29.9905C43.9872 15.9092 61.8928 6.31968 81.3858 2.4347C100.879 -1.45029 121.084 0.543614 139.446 8.1643C157.808 15.785 173.502 28.6902 184.544 45.2482C195.586 61.8061 201.48 81.273 201.48 101.187C201.45 127.882 190.852 153.475 172.013 172.351C153.174 191.227 127.632 201.845 100.99 201.875Z" stroke="black"/>
</svg>
