<svg width="81" height="27" viewBox="0 0 81 27" fill="none" xmlns="http://www.w3.org/2000/svg">
<path d="M66.4752 8.08574C64.9655 6.9044 63.1506 6.16827 61.2383 5.96166C59.326 5.75504 57.3936 6.08628 55.6625 6.91745C53.9314 7.74863 52.4714 9.04614 51.4499 10.6614C50.4285 12.2766 49.8867 14.1442 49.8867 16.0504C49.8867 17.9566 50.4285 19.8243 51.4499 21.4395C52.4714 23.0548 53.9314 24.3522 55.6625 25.1834C57.3936 26.0146 59.326 26.3459 61.2383 26.1392C63.1506 25.9326 64.9655 25.1965 66.4752 24.0151V26.3918H70.3767V5.99804H66.4752V8.08574ZM60.1352 22.3324C58.8813 22.3324 57.6555 21.964 56.6129 21.2736C55.5703 20.5833 54.7577 19.6021 54.2779 18.4541C53.798 17.3062 53.6725 16.043 53.9171 14.8243C54.1617 13.6056 54.7655 12.4862 55.6522 11.6076C56.5389 10.729 57.6686 10.1306 58.8984 9.88821C60.1282 9.6458 61.403 9.77023 62.5614 10.2457C63.7199 10.7212 64.71 11.5265 65.4067 12.5596C66.1033 13.5928 66.4752 14.8074 66.4752 16.05C66.4731 17.7155 65.8045 19.3123 64.616 20.49C63.4274 21.6678 61.8161 22.3303 60.1352 22.3324Z" fill="black"/>
<path d="M48.3482 0.0478516H44.4453V26.3921H48.3482V0.0478516Z" fill="black"/>
<path d="M11.7109 5.90186V9.79174V26.3918H15.5186V9.79174H19.5166V5.90186H15.5186H11.7109Z" fill="black"/>
<path d="M76.6436 5.90186H72.8359V9.79174V26.3918H76.6436V9.79174H80.6416V5.90186H76.6436Z" fill="black"/>
<path d="M3.90285 16.1853V9.76983H8.19599V5.88165H3.90285V0.5354H0V16.1853C0.0030989 18.8913 1.08347 21.4856 3.0041 23.399C4.92474 25.3124 7.5288 26.3887 10.245 26.3918V22.5036C8.56358 22.5016 6.95164 21.8352 5.76271 20.6507C4.57377 19.4663 3.90492 17.8604 3.90285 16.1853Z" fill="black"/>
<path fill-rule="evenodd" clip-rule="evenodd" d="M36.2245 20.6203C37.4142 19.4239 38.0825 17.8013 38.0825 16.1093L38.0786 5.90186H41.9822V5.94629H41.9844V26.1963H38.1272V24.1425C36.3172 25.5947 34.0653 26.3918 31.7372 26.3918C29.1924 26.3918 26.7387 25.4395 24.8537 23.7203C22.9686 22.001 21.7871 19.6379 21.539 17.0908H21.4922V5.90186H25.3958V16.1093C25.3958 17.8013 26.0641 19.4239 27.2537 20.6203C28.4433 21.8168 30.0568 22.4889 31.7391 22.4889C33.4215 22.4889 35.0349 21.8168 36.2245 20.6203Z" fill="black"/>
</svg>
