<svg width="207" height="62" fill="none" xmlns="http://www.w3.org/2000/svg"><path d="M156.162 18.995a24.177 24.177 0 0 0-12.302-4.99 24.253 24.253 0 0 0-13.099 2.246 23.987 23.987 0 0 0-9.896 8.795 23.678 23.678 0 0 0-3.672 12.66c0 4.478 1.272 8.865 3.672 12.66a23.987 23.987 0 0 0 9.896 8.795 24.254 24.254 0 0 0 13.099 2.245 24.177 24.177 0 0 0 12.302-4.99V62h9.166V14.09h-9.166v4.905Zm-14.894 33.468a14.99 14.99 0 0 1-8.274-2.487 14.796 14.796 0 0 1-5.486-6.624 14.634 14.634 0 0 1-.847-8.527 14.72 14.72 0 0 1 4.076-7.556 14.937 14.937 0 0 1 7.626-4.04 15.02 15.02 0 0 1 8.605.84 14.865 14.865 0 0 1 6.684 5.436 14.66 14.66 0 0 1 2.51 8.2 14.71 14.71 0 0 1-4.367 10.43 14.984 14.984 0 0 1-10.527 4.328ZM113.573.112h-9.169V62h9.169V.112ZM89.461 37.844a15.03 15.03 0 0 1-4.364 10.597 14.859 14.859 0 0 1-10.538 4.39 14.859 14.859 0 0 1-10.537-4.39 15.03 15.03 0 0 1-4.364-10.597v-23.98h-9.17V40.15h.11a24.259 24.259 0 0 0 7.786 15.574A23.995 23.995 0 0 0 74.554 62a23.996 23.996 0 0 0 16.171-6.276 24.259 24.259 0 0 0 7.787-15.574h.11V13.865h-9.17l.01 23.979ZM27.506 13.865V62h8.944V23.003h9.393v-9.138H27.506ZM180.055 13.865h-8.945v48.134h8.945V23.003h9.392v-9.138h-9.392ZM9.169 38.022v-15.07h10.085v-9.135H9.169V1.257H0v36.765A23.959 23.959 0 0 0 7.057 54.97a24.14 24.14 0 0 0 17.01 7.03v-9.134a14.946 14.946 0 0 1-10.53-4.353 14.833 14.833 0 0 1-4.368-10.49Z" fill="#fff"/><path fill="#fff" d="M98.627 13.97v47.57h-9.061V13.97zM195.674 11a6.25 6.25 0 0 1-1.349-2.1 6.339 6.339 0 0 1-.43-2.467 6.433 6.433 0 0 1 .423-2.472 6.36 6.36 0 0 1 1.335-2.112 6.075 6.075 0 0 1 2.1-1.415 6.008 6.008 0 0 1 2.485-.43c1.963 0 3.535.61 4.718 1.828a6.26 6.26 0 0 1 1.346 2.101c.304.786.449 1.626.425 2.47a6.45 6.45 0 0 1-.421 2.46 6.364 6.364 0 0 1-1.32 2.106 6.132 6.132 0 0 1-2.126 1.43 6.065 6.065 0 0 1-2.515.431 6.157 6.157 0 0 1-2.525-.418 6.228 6.228 0 0 1-2.146-1.413Zm-.457-4.567a5.239 5.239 0 0 0 1.365 3.722 4.86 4.86 0 0 0 1.704 1.136c.64.252 1.326.364 2.012.327 1.593 0 2.843-.482 3.75-1.445.461-.507.818-1.1 1.053-1.747.234-.647.34-1.335.312-2.024a5.208 5.208 0 0 0-.315-2.02 5.14 5.14 0 0 0-1.067-1.737c-.922-.958-2.186-1.435-3.793-1.432a4.753 4.753 0 0 0-1.989.326 4.814 4.814 0 0 0-1.684 1.124 5.328 5.328 0 0 0-1.348 3.77Zm5.239.411h-.853v2.96h-1.28V2.806h2.103c1.544 0 2.321.667 2.321 2.005.028.362-.057.724-.243 1.035-.186.311-.464.554-.794.696l1.318 3.277h-1.348l-1.224-2.974Zm.094-2.861h-.943v1.684h.943c.546 0 .815-.286.815-.866a.746.746 0 0 0-.208-.614.723.723 0 0 0-.607-.204Z"/></svg>