<svg width="81" height="27" fill="none" xmlns="http://www.w3.org/2000/svg"><path d="M66.475 8.086a10.324 10.324 0 0 0-10.813-1.168 10.21 10.21 0 0 0-4.212 3.743 10.081 10.081 0 0 0-1.563 5.39c0 1.906.541 3.773 1.563 5.389a10.21 10.21 0 0 0 4.212 3.743 10.323 10.323 0 0 0 10.813-1.168v2.377h3.902V5.998h-3.902v2.088Zm-6.34 14.246a6.38 6.38 0 0 1-3.522-1.058 6.294 6.294 0 0 1-2.335-2.82 6.23 6.23 0 0 1-.36-3.63 6.264 6.264 0 0 1 1.734-3.216 6.359 6.359 0 0 1 3.246-1.72 6.394 6.394 0 0 1 3.663.358 6.328 6.328 0 0 1 2.846 2.314 6.243 6.243 0 0 1 1.068 3.49 6.262 6.262 0 0 1-1.859 4.44 6.377 6.377 0 0 1-4.48 1.842ZM48.348.048h-3.903v26.344h3.903V.048ZM11.71 5.902V26.392h3.809v-16.6h3.998v-3.89H11.71ZM76.644 5.902h-3.808V26.392h3.808v-16.6h3.998v-3.89h-3.998ZM3.903 16.185V9.77h4.293V5.882H3.903V.535H0v15.65A10.199 10.199 0 0 0 3.004 23.4a10.276 10.276 0 0 0 7.241 2.993v-3.888a6.362 6.362 0 0 1-4.482-1.853 6.314 6.314 0 0 1-1.86-4.466Z" fill="#000"/><path fill-rule="evenodd" clip-rule="evenodd" d="M36.224 20.62a6.398 6.398 0 0 0 1.859-4.51l-.004-10.208h3.903v.044h.002v20.25h-3.857v-2.054a10.21 10.21 0 0 1-6.39 2.25c-2.545 0-4.998-.953-6.883-2.672a10.327 10.327 0 0 1-3.315-6.63h-.047V5.903h3.904v10.207c0 1.692.668 3.315 1.858 4.511a6.325 6.325 0 0 0 4.485 1.869 6.325 6.325 0 0 0 4.485-1.869Z" fill="#000"/></svg>