<svg width="207" height="62" viewBox="0 0 207 62" fill="none" xmlns="http://www.w3.org/2000/svg">
<path d="M156.162 18.9951C152.616 16.2199 148.352 14.4906 143.86 14.0052C139.367 13.5198 134.828 14.298 130.761 16.2506C126.694 18.2032 123.265 21.2513 120.865 25.0457C118.465 28.8402 117.193 33.2277 117.193 37.7057C117.193 42.1837 118.465 46.5712 120.865 50.3657C123.265 54.1601 126.694 57.2082 130.761 59.1608C134.828 61.1134 139.367 61.8915 143.86 61.4062C148.352 60.9208 152.616 59.1914 156.162 56.4162V61.9995H165.328V14.0907H156.162V18.9951ZM141.268 52.4632C138.323 52.4632 135.443 51.5977 132.994 49.976C130.545 48.3543 128.636 46.0492 127.508 43.3524C126.381 40.6556 126.086 37.6882 126.661 34.8253C127.236 31.9624 128.654 29.3326 130.737 27.2686C132.82 25.2045 135.474 23.7989 138.363 23.2294C141.252 22.66 144.247 22.9523 146.968 24.0693C149.689 25.1864 152.016 27.078 153.652 29.5051C155.289 31.9321 156.162 34.7856 156.162 37.7046C156.157 41.6173 154.587 45.3684 151.795 48.1351C149.002 50.9019 145.217 52.4584 141.268 52.4632Z" fill="white"/>
<path d="M113.573 0.112427H104.404V62H113.573V0.112427Z" fill="white"/>
<path d="M89.4611 37.8439C89.4611 41.8187 87.8911 45.6306 85.0965 48.4412C82.3019 51.2518 78.5116 52.8308 74.5594 52.8308C70.6072 52.8308 66.8169 51.2518 64.0223 48.4412C61.2277 45.6306 59.6577 41.8187 59.6577 37.8439V13.8647H50.4874V40.1496H50.5975C51.1802 46.1332 53.9558 51.6847 58.3842 55.7235C62.8126 59.7623 68.5767 61.9995 74.5548 61.9995C80.5329 61.9995 86.2971 59.7623 90.7255 55.7235C95.1539 51.6847 97.9295 46.1332 98.5122 40.1496H98.6222V13.8647H89.4519L89.4611 37.8439Z" fill="white"/>
<path d="M27.5056 13.865V23.0031V61.9998H36.4505V23.0031H45.8427V13.865H36.4505H27.5056Z" fill="white"/>
<path d="M180.055 13.8647H171.11V23.0028V61.9995H180.055V23.0028H189.447V13.8647H180.055Z" fill="white"/>
<path d="M9.16853 38.0223V22.9511H19.2539V13.817H9.16853V1.25769H0V38.0223C0.00727991 44.3792 2.54527 50.4736 7.0572 54.9686C11.5691 59.4636 17.6866 61.992 24.0674 61.9992V52.8651C20.1175 52.8603 16.3307 51.2949 13.5377 48.5124C10.7447 45.7299 9.17338 41.9574 9.16853 38.0223Z" fill="white"/>
<rect x="98.6266" y="13.969" width="47.5711" height="9.06117" transform="rotate(90 98.6266 13.969)" fill="white"/>
<path d="M195.674 10.9994C195.089 10.3992 194.63 9.68528 194.325 8.90051C194.019 8.11574 193.873 7.27636 193.895 6.43281C193.873 5.58851 194.016 4.74816 194.318 3.96102C194.62 3.17389 195.074 2.45581 195.653 1.84887C196.248 1.23383 196.963 0.752023 197.753 0.434446C198.543 0.116869 199.389 -0.0294452 200.238 0.00490692C202.201 0.00490692 203.773 0.61379 204.956 1.83156C205.54 2.43298 205.998 3.14796 206.302 3.93348C206.606 4.719 206.751 5.55885 206.727 6.4025C206.748 7.24257 206.605 8.07859 206.306 8.86236C206.008 9.64613 205.559 10.3621 204.986 10.9691C204.384 11.5914 203.66 12.0786 202.86 12.3992C202.061 12.7198 201.204 12.8667 200.345 12.8304C199.484 12.8693 198.624 12.7266 197.82 12.4115C197.016 12.0964 196.286 11.6156 195.674 10.9994ZM195.217 6.43281C195.168 7.80816 195.659 9.14701 196.582 10.1554C197.065 10.6517 197.645 11.0387 198.286 11.2908C198.926 11.543 199.612 11.6547 200.298 11.6184C201.891 11.6184 203.141 11.1365 204.048 10.1727C204.509 9.66629 204.866 9.07261 205.101 8.42565C205.335 7.77868 205.441 7.09116 205.413 6.4025C205.443 5.7142 205.335 5.02689 205.098 4.38143C204.861 3.73598 204.498 3.14557 204.031 2.64533C203.109 1.68727 201.845 1.20969 200.238 1.21258C199.56 1.17781 198.882 1.28902 198.249 1.53893C197.616 1.78885 197.042 2.1718 196.565 2.66264C195.645 3.69035 195.16 5.04504 195.217 6.43281ZM200.456 6.84401H199.603V9.80475H198.323V2.80548H200.426C201.97 2.80548 202.747 3.47208 202.747 4.8096C202.775 5.1721 202.69 5.53442 202.504 5.8452C202.318 6.15598 202.04 6.39943 201.71 6.54102L203.028 9.81772H201.68L200.456 6.84401ZM200.55 3.98285H199.607V5.66664H200.55C201.096 5.66664 201.365 5.38096 201.365 4.80093C201.379 4.68932 201.367 4.5759 201.331 4.46948C201.295 4.36305 201.235 4.2665 201.157 4.18734C201.078 4.10819 200.982 4.04855 200.877 4.01308C200.772 3.97761 200.66 3.96727 200.55 3.98285Z" fill="white"/>
</svg>
